<svg xmlns="http://www.w3.org/2000/svg" width="22.003" height="32.179" viewBox="0 0 22.003 32.179">
  <path id="pin_green" data-name="pin_green" d="M4.212.008a2.032,2.032,0,0,0-1.32,2.332c.139,1.11.955,1.867,1.823,1.689H6.287v8.043H3.143C1.414,12.072,0,13.882,0,16.094H9.43V28.158l1.383,4.021,1.76-4.021V16.094H22c-.113-1.647-1.414-4.021-3.143-4.021H15.717V4.03h1.572A1.832,1.832,0,0,0,18.86,2.019,1.832,1.832,0,0,0,17.288.008H4.715a1.23,1.23,0,0,0-.283,0,1.229,1.229,0,0,0-.189,0Z" fill="#1ea983"/>
</svg>
